<?xml version="1.0" ?><!DOCTYPE svg  PUBLIC '-//W3C//DTD SVG 1.1//EN'  'http://www.w3.org/Graphics/SVG/1.1/DTD/svg11.dtd'><svg enable-background="new 0 0 24 24" height="24px" id="Layer_1" version="1.1" viewBox="0 0 24 24" width="24px" xml:space="preserve" xmlns="http://www.w3.org/2000/svg" xmlns:xlink="http://www.w3.org/1999/xlink"><g><path d="M23,7h-1V6c0-0.6-0.4-1-1-1H1C0.4,5,0,5.4,0,6v12c0,0.6,0.4,1,1,1h20c0.6,0,1-0.4,1-1v-1h1c0.6,0,1-0.4,1-1V8   C24,7.4,23.6,7,23,7z M22,15h-2v2H2V7h18v2h2V15z"/><path d="M3,16h3V8H3V16z M4,9h1v6H4V9z"/><path d="M7,16h3V8H7V16z M8,9h1v6H8V9z"/><path d="M11,16h3V8h-3V16z M12,9h1v6h-1V9z"/><path d="M15,16h3V8h-3V16z M16,9h1v6h-1V9z"/></g></svg>